<svg width="972" height="346" viewBox="0 0 972 346" fill="none" xmlns="http://www.w3.org/2000/svg">
<path d="M165.234 4.26562H170.859C188.578 4.26562 204.75 10.4062 219.375 22.6875C237.375 42.4688 246.375 66.5156 246.375 94.8281C246.375 129.984 233.812 167.438 208.688 207.188C187.406 236.344 167.953 250.922 150.328 250.922H149.906C133.125 250.922 122.391 238.922 117.703 214.922C116.859 210.797 116.438 205.922 116.438 200.297C116.438 195.797 116.859 185.766 117.703 170.203C115.359 173.672 110.484 182.438 103.078 196.5C95.5781 209.625 85.2656 223.781 72.1406 238.969C57.2344 254.906 45.9375 264.469 38.25 267.656C34.5 269.062 30.7969 269.766 27.1406 269.766H26.2969C14.3906 269.766 6.23438 260.344 1.82812 241.5C0.703125 235.5 0.140625 228.938 0.140625 221.812C0.140625 185.625 11.4375 144.422 34.0312 98.2031C47.9062 74.2031 59.3438 62.2031 68.3438 62.2031C72.9375 62.9531 75.2344 64.6406 75.2344 67.2656V67.6875C75.2344 69.9375 72.2344 72.9375 66.2344 76.6875C52.0781 95.8125 43.7812 109.688 41.3438 118.312C21.2812 162.656 11.25 199.688 11.25 229.406C11.25 241.312 13.8281 250.5 18.9844 256.969C21.7969 259.5 24.5156 260.766 27.1406 260.766C45.7969 260.766 70.4062 236.156 100.969 186.938C110.25 169.406 119.109 150.141 127.547 129.141L129.656 127.312H130.078C132.422 127.312 133.594 128.906 133.594 132.094C133.594 133.594 131.297 145.734 126.703 168.516C125.578 177.328 124.875 186.188 124.594 195.094C124.594 219.562 129.984 235.031 140.766 241.5L148.078 243.188L148.922 242.766H151.172C159.891 242.766 171.469 235.641 185.906 221.391C205.406 199.453 219.281 175.266 227.531 148.828C233.531 130.641 236.531 113.062 236.531 96.0938C236.531 73.0312 230.672 52.5469 218.953 34.6406C207.328 18.4219 188.719 10.3125 163.125 10.3125H162.281C148.969 10.3125 136.969 14.2969 126.281 22.2656L119.812 25.6406L119.391 24.7969C119.391 20.6719 126.094 15.375 139.5 8.90625C148.406 5.8125 156.984 4.26562 165.234 4.26562Z" fill="#222222"/>
<path d="M287.016 126.75H288C288.938 126.75 290.109 127.734 291.516 129.703C292.828 129.703 294.984 129.609 297.984 129.422C301.922 130.547 304.547 132.422 305.859 135.047C306.891 136.547 307.406 138.516 307.406 140.953V142.078C307.406 151.078 301.922 161.203 290.953 172.453C285.422 176.766 280.406 178.922 275.906 178.922C269.812 178.922 266.25 174.984 265.219 167.109V164.156C265.219 160.875 266.719 153.797 269.719 142.922C271.688 140.016 272.859 138.562 273.234 138.562C278.297 130.688 282.891 126.75 287.016 126.75ZM274.078 166.547V167.953C274.359 170.484 275.344 171.75 277.031 171.75H277.875C282.844 170.625 288.375 166.219 294.469 158.531C299.344 152.062 301.781 146.672 301.781 142.359V140.25C301.781 135.188 299.25 132.656 294.188 132.656C288.469 132.656 284.109 136.594 281.109 144.469C276.422 154.219 274.078 161.578 274.078 166.547Z" fill="#222222"/>
<path d="M344.25 115.781H345.094C346.312 116.531 346.875 117.891 346.781 119.859C346.5 123.516 345.141 132.234 342.703 146.016V146.156H342.844C346.312 140.719 351.047 135.516 357.047 130.547C366.234 125.016 375.328 122.484 384.328 122.953C389.016 123.609 391.359 124.266 391.359 124.922V125.766C391.266 126.047 390.891 126.375 390.234 126.75L384.328 126.469C365.766 125.438 352.594 136.406 344.812 159.375C343.312 164.625 342.094 170.578 341.156 177.234C339.844 179.109 338.203 180 336.234 179.906L335.25 179.766C333.469 179.672 332.672 178.031 332.859 174.844C332.672 172.312 332.672 168.891 332.859 164.578L333.281 155.859C335.156 132.328 337.453 119.578 340.172 117.609C341.672 116.297 343.031 115.688 344.25 115.781Z" fill="#222222"/>
<path d="M480.234 26.2031H480.516C483.047 26.2031 484.312 28.3125 484.312 32.5312C466.406 87 457.453 116.016 457.453 119.578C449.672 148.547 445.781 175.359 445.781 200.016V203.812C445.781 216.188 446.625 224.203 448.312 227.859C448.031 228.891 447.75 229.406 447.469 229.406H446.203C443.484 229.406 441.703 225.703 440.859 218.297C440.016 213.984 439.594 208.734 439.594 202.547V197.906C439.594 180.281 442.922 156.188 449.578 125.625C449.016 126.375 446.109 132.891 440.859 145.172C427.828 171.703 417.516 184.969 409.922 184.969C405.891 184.969 403.875 182.438 403.875 177.375V174.141C403.875 163.266 409.453 147.938 420.609 128.156C429.609 114.656 438.234 106.969 446.484 105.094C449.391 105.094 450.844 104.25 450.844 102.562C464.344 63.2812 472.875 38.8125 476.438 29.1562C477.656 27.1875 478.922 26.2031 480.234 26.2031ZM412.453 173.578C412.828 174.797 413.25 175.406 413.719 175.406C420.469 175.406 430.547 157.781 443.953 122.531C444.797 120.75 445.734 117.703 446.766 113.391C443.203 114.797 438.891 119.297 433.828 126.891C420.891 146.859 413.766 162.422 412.453 173.578ZM449.578 124.359V125.062H450V124.359H449.578Z" fill="#222222"/>
<path d="M630.984 0.890625H635.625C651.844 0.890625 663.844 8.57812 671.625 23.9531C673.781 29.4844 674.859 34.7344 674.859 39.7031V42.2344C674.859 66.9844 660.234 95.6719 630.984 128.297C611.953 146.766 595.359 160.547 581.203 169.641C567.609 179.391 552.891 188.531 537.047 197.062C534.609 214.781 533.391 231.562 533.391 247.406V261.047C533.391 263.016 532.547 264.562 530.859 265.688H530.156C528.75 265.688 528.047 261.516 528.047 253.172V244.172C528.047 233.578 528.516 218.953 529.453 200.297H529.031C523.594 201.703 519.75 202.406 517.5 202.406C515.625 201.938 514.688 201.469 514.688 201V200.297C514.688 199.547 519.703 197.859 529.734 195.234C535.547 135.328 540.469 97.875 544.5 82.875C547.406 74.0625 550.922 69.6562 555.047 69.6562C558.609 69.6562 560.391 71.6719 560.391 75.7031C560.391 76.5469 558.094 85.5469 553.5 102.703C547.312 132.047 542.156 161.203 538.031 190.172C538.312 190.172 538.453 190.312 538.453 190.594C550.078 185.906 572.016 170.391 604.266 144.047C616.734 132.984 627.281 122.203 635.906 111.703C656.812 84.1406 667.266 60.9844 667.266 42.2344V41.5312C667.266 27.0938 662.109 17.3906 651.797 12.4219C647.016 9.98438 641.859 8.76562 636.328 8.76562H633.094C614.531 8.76562 591.375 18.8438 563.625 39C547.219 53.3438 536.297 64.6406 530.859 72.8906C521.766 85.4531 514.828 96.8438 510.047 107.062C504.047 120.938 501.047 130.406 501.047 135.469C501.609 135.469 502.078 136.406 502.453 138.281V140.812C500.297 144.938 497.062 147 492.75 147C490.031 147 488.344 144.938 487.688 140.812V138C489.094 126.094 495.797 109.172 507.797 87.2344C513.516 77.7656 522.75 66 535.5 51.9375C549.656 38.3438 561.891 28.4062 572.203 22.125C595.359 7.96875 614.953 0.890625 630.984 0.890625Z" fill="#222222"/>
<path d="M666 115.781H666.844C668.062 116.531 668.625 117.891 668.531 119.859C668.25 123.516 666.891 132.234 664.453 146.016V146.156H664.594C668.062 140.719 672.797 135.516 678.797 130.547C687.984 125.016 697.078 122.484 706.078 122.953C710.766 123.609 713.109 124.266 713.109 124.922V125.766C713.016 126.047 712.641 126.375 711.984 126.75L706.078 126.469C687.516 125.438 674.344 136.406 666.562 159.375C665.062 164.625 663.844 170.578 662.906 177.234C661.594 179.109 659.953 180 657.984 179.906L657 179.766C655.219 179.672 654.422 178.031 654.609 174.844C654.422 172.312 654.422 168.891 654.609 164.578L655.031 155.859C656.906 132.328 659.203 119.578 661.922 117.609C663.422 116.297 664.781 115.688 666 115.781Z" fill="#222222"/>
<path d="M760.359 124.5C763.828 125.438 765.422 127.359 765.141 130.266C764.484 136.266 758.203 142.828 746.297 149.953C745.078 150.703 742.781 151.312 739.406 151.781C736.875 155.906 735.469 159.469 735.188 162.469L735.047 164.719C734.484 170.156 737.438 173.203 743.906 173.859C757.125 175.172 777.844 165.75 806.062 145.594C809.156 142.688 810.891 141.281 811.266 141.375H811.828C812.109 141.375 812.391 141.703 812.672 142.359L812.531 143.625C806.344 149.906 799.359 155.438 791.578 160.219C769.078 173.625 751.969 179.719 740.25 178.5C731.062 177.562 727.031 171.469 728.156 160.219C729.094 151.125 734.156 141.797 743.344 132.234C749.906 126.516 755.578 123.938 760.359 124.5Z" fill="#222222"/>
<path d="M831.656 106.922C837.281 107.391 840.094 109.312 840.094 112.688C840.094 115.781 837.703 117.75 832.922 118.594C827.391 123.094 823.5 127.5 821.25 131.812C817.031 137.625 814.922 141.891 814.922 144.609C814.922 151.453 826.031 158.531 848.25 165.844C848.25 166.031 848.438 166.125 848.812 166.125C867.656 153.188 881.719 145.031 891 141.656H891.281C891.656 141.75 891.844 141.938 891.844 142.219C891.844 143.156 887.859 145.641 879.891 149.672C869.672 155.672 860.297 161.766 851.766 167.953L850.641 168.938C851.203 171.844 851.484 174.422 851.484 176.672C851.484 188.484 846.094 200.859 835.312 213.797C821.906 228.328 811.219 235.594 803.25 235.594C799.312 235.594 797.016 232.594 796.359 226.594C796.359 215.344 811.828 196.312 842.766 169.5C826.641 163.875 816.281 159.656 811.688 156.844C807.656 153.469 805.641 149.906 805.641 146.156V145.594C805.641 134.438 812.438 122.766 826.031 110.578C829.5 108.141 831.375 106.922 831.656 106.922ZM844.875 173.297C840.75 175.641 832.359 183.234 819.703 196.078C806.953 210.516 800.578 220.688 800.578 226.594C800.578 229.594 801.891 231.094 804.516 231.094C810.234 231.094 818.906 224.016 830.531 209.859C840.469 196.453 845.438 185.109 845.438 175.828V173.719C845.438 173.438 845.25 173.297 844.875 173.297Z" fill="#222222"/>
<path d="M911.25 106.922C916.875 107.391 919.688 109.312 919.688 112.688C919.688 115.781 917.297 117.75 912.516 118.594C906.984 123.094 903.094 127.5 900.844 131.812C896.625 137.625 894.516 141.891 894.516 144.609C894.516 151.453 905.625 158.531 927.844 165.844C927.844 166.031 928.031 166.125 928.406 166.125C947.25 153.188 961.312 145.031 970.594 141.656H970.875C971.25 141.75 971.438 141.938 971.438 142.219C971.438 143.156 967.453 145.641 959.484 149.672C949.266 155.672 939.891 161.766 931.359 167.953L930.234 168.938C930.797 171.844 931.078 174.422 931.078 176.672C931.078 188.484 925.688 200.859 914.906 213.797C901.5 228.328 890.812 235.594 882.844 235.594C878.906 235.594 876.609 232.594 875.953 226.594C875.953 215.344 891.422 196.312 922.359 169.5C906.234 163.875 895.875 159.656 891.281 156.844C887.25 153.469 885.234 149.906 885.234 146.156V145.594C885.234 134.438 892.031 122.766 905.625 110.578C909.094 108.141 910.969 106.922 911.25 106.922ZM924.469 173.297C920.344 175.641 911.953 183.234 899.297 196.078C886.547 210.516 880.172 220.688 880.172 226.594C880.172 229.594 881.484 231.094 884.109 231.094C889.828 231.094 898.5 224.016 910.125 209.859C920.062 196.453 925.031 185.109 925.031 175.828V173.719C925.031 173.438 924.844 173.297 924.469 173.297Z" fill="#222222"/>
<path d="M284.488 259.816H250.6V345.064H259.048V287.272H284.488V259.816ZM293.416 259.816V287.272H318.376V331.912C318.376 337.672 315.688 338.152 305.128 335.176L303.976 338.536C317.704 347.656 326.824 345.352 326.824 333.64V259.816H293.416ZM276.424 271.144H259.048V264.136H276.424V271.144ZM318.376 271.144H301.48V264.136H318.376V271.144ZM276.424 282.952H259.048V275.464H276.424V282.952ZM318.376 282.952H301.48V275.464H318.376V282.952ZM316.072 315.976V311.656H301.864V299.272H313.096V294.952H265V299.272H275.944V311.464V311.656H262.12V315.976H275.752C274.792 328.36 269.8 334.888 262.792 340.072L264.808 342.952C274.12 338.92 282.28 330.184 283.816 315.976H293.8V340.648H301.864V315.976H316.072ZM284.104 311.656V310.696L284.008 299.272H293.8V311.656H284.104Z" fill="#3CADCF"/>
<path d="M429.544 280.648C433.48 278.536 438.088 275.56 441.64 272.392L434.344 267.592C431.752 271.816 428.968 275.272 426.184 278.152C423.88 276.424 421.864 274.408 419.848 272.104C424.072 269.704 428.296 266.632 431.752 263.752L424.36 259.144C422.056 263.08 420.04 266.152 417.544 269.032C414.856 265.288 412.36 260.968 409.96 255.784L406.6 256.84C410.824 270.28 416.968 279.4 424.552 285.928H406.024C406.12 298.216 406.504 302.728 398.536 308.68L400.168 311.464C411.496 306.952 413.416 300.808 413.512 290.248H421.768V299.656C421.768 305.416 424.264 307.624 433.288 307.624C439.048 307.624 442.408 306.472 444.424 303.688L440.68 297.736C438.76 300.136 437.224 300.328 434.44 300.52C430.504 300.808 428.872 299.944 428.872 297.064V289.288C433.768 292.744 439.048 295.336 444.712 297.64L449.416 288.616C441.448 286.6 435.016 284.104 429.544 280.648ZM379.72 314.056C380.2 310.984 380.68 307.912 380.968 305.224H400.36V286.12H390.856C398.056 280.456 403.816 273.544 408.424 264.904L400.168 260.392L397.864 262.12L370.504 261.832V265.96L397.576 266.248C395.752 270.76 392.776 274.888 389.32 278.728C385 274.792 379.528 270.952 374.92 268.456L372.904 270.952C375.976 274.408 380.296 279.784 383.464 284.2C376.84 289.768 369.256 293.992 363.208 296.584L364.648 299.656C372.328 297.064 379.048 293.992 385 290.248H392.872V301.096H374.152C373 309.448 371.944 315.688 370.024 323.08L377.608 324.232C378.088 322.312 378.568 320.296 378.952 318.184H391.72C391.048 325.096 389.896 330.376 388.84 333.544C387.304 338.056 385.192 338.44 374.536 334.024L373 337.096C385.192 347.56 393.64 346.024 396.136 337.288C397.768 331.624 399.016 325.288 400.168 314.056H379.72ZM436.264 313.384L428.392 309.544L425.992 311.08H401.896V315.112H406.408C409 321.736 412.264 326.824 415.912 330.76C411.016 335.656 404.68 339.784 396.712 343.048L397.864 345.928C407.176 343.144 414.376 339.592 420.232 334.888C426.184 339.784 433 342.664 440.008 345.16L444.52 336.712C438.184 335.464 431.464 333.736 425.224 330.28C429.544 325.672 433 320.104 436.264 313.384ZM425.992 315.112C424.552 319.144 422.44 322.984 419.656 326.632C416.008 323.752 412.648 320.008 409.864 315.112H425.992Z" fill="#3CADCF"/>
<path d="M504.136 309.16C509.32 309.16 513.448 305.032 513.448 299.848C513.448 294.664 509.32 290.536 504.136 290.536C498.856 290.536 494.728 294.664 494.728 299.848C494.728 305.032 498.856 309.16 504.136 309.16Z" fill="#3CADCF"/>
<path d="M573.027 343.144H582.051V332.488H622.755V343.048H631.779V260.392H573.027V343.144ZM582.051 293.32V265.192H622.755V293.32H582.051ZM582.051 327.688V297.64H622.755V327.688H582.051Z" fill="#3CADCF"/>
<path d="M734.499 275.944C738.819 271.912 743.331 266.536 746.115 262.6L736.899 258.376C735.267 263.656 732.003 271.432 729.315 275.944H723.651V256.072H715.011V275.944H703.779L709.635 272.584C706.659 268.072 701.571 262.408 696.003 257.896L693.219 260.008C696.387 265.48 698.979 271.048 700.899 275.944H678.627V292.936H687.075V280.264H751.107V292.936H759.555V275.944H734.499ZM723.651 304.552H741.699V286.024H695.907V304.552H715.011V311.464H688.227V339.592H696.675V315.784H715.011V345.16H723.651V315.784H742.947V327.784C742.947 332.104 741.603 332.776 731.235 330.088L730.179 333.448C744.099 343.144 751.395 339.112 751.395 331.048V311.464H723.651V304.552ZM704.163 290.344H733.443V300.232H704.163V290.344Z" fill="#3CADCF"/>
</svg>
