<svg width="980" height="354" viewBox="0 0 980 354" fill="none" xmlns="http://www.w3.org/2000/svg">
<g filter="url(#filter0_d)">
<path d="M169.234 4.26562H174.859C192.578 4.26562 208.75 10.4062 223.375 22.6875C241.375 42.4688 250.375 66.5156 250.375 94.8281C250.375 129.984 237.812 167.438 212.688 207.188C191.406 236.344 171.953 250.922 154.328 250.922H153.906C137.125 250.922 126.391 238.922 121.703 214.922C120.859 210.797 120.438 205.922 120.438 200.297C120.438 195.797 120.859 185.766 121.703 170.203C119.359 173.672 114.484 182.438 107.078 196.5C99.5781 209.625 89.2656 223.781 76.1406 238.969C61.2344 254.906 49.9375 264.469 42.25 267.656C38.5 269.062 34.7969 269.766 31.1406 269.766H30.2969C18.3906 269.766 10.2344 260.344 5.82812 241.5C4.70312 235.5 4.14062 228.938 4.14062 221.812C4.14062 185.625 15.4375 144.422 38.0312 98.2031C51.9062 74.2031 63.3438 62.2031 72.3438 62.2031C76.9375 62.9531 79.2344 64.6406 79.2344 67.2656V67.6875C79.2344 69.9375 76.2344 72.9375 70.2344 76.6875C56.0781 95.8125 47.7812 109.688 45.3438 118.312C25.2812 162.656 15.25 199.688 15.25 229.406C15.25 241.312 17.8281 250.5 22.9844 256.969C25.7969 259.5 28.5156 260.766 31.1406 260.766C49.7969 260.766 74.4062 236.156 104.969 186.938C114.25 169.406 123.109 150.141 131.547 129.141L133.656 127.312H134.078C136.422 127.312 137.594 128.906 137.594 132.094C137.594 133.594 135.297 145.734 130.703 168.516C129.578 177.328 128.875 186.188 128.594 195.094C128.594 219.562 133.984 235.031 144.766 241.5L152.078 243.188L152.922 242.766H155.172C163.891 242.766 175.469 235.641 189.906 221.391C209.406 199.453 223.281 175.266 231.531 148.828C237.531 130.641 240.531 113.062 240.531 96.0938C240.531 73.0312 234.672 52.5469 222.953 34.6406C211.328 18.4219 192.719 10.3125 167.125 10.3125H166.281C152.969 10.3125 140.969 14.2969 130.281 22.2656L123.812 25.6406L123.391 24.7969C123.391 20.6719 130.094 15.375 143.5 8.90625C152.406 5.8125 160.984 4.26562 169.234 4.26562Z" fill="white"/>
<path d="M291.016 126.75H292C292.938 126.75 294.109 127.734 295.516 129.703C296.828 129.703 298.984 129.609 301.984 129.422C305.922 130.547 308.547 132.422 309.859 135.047C310.891 136.547 311.406 138.516 311.406 140.953V142.078C311.406 151.078 305.922 161.203 294.953 172.453C289.422 176.766 284.406 178.922 279.906 178.922C273.812 178.922 270.25 174.984 269.219 167.109V164.156C269.219 160.875 270.719 153.797 273.719 142.922C275.688 140.016 276.859 138.562 277.234 138.562C282.297 130.688 286.891 126.75 291.016 126.75ZM278.078 166.547V167.953C278.359 170.484 279.344 171.75 281.031 171.75H281.875C286.844 170.625 292.375 166.219 298.469 158.531C303.344 152.062 305.781 146.672 305.781 142.359V140.25C305.781 135.188 303.25 132.656 298.188 132.656C292.469 132.656 288.109 136.594 285.109 144.469C280.422 154.219 278.078 161.578 278.078 166.547Z" fill="white"/>
<path d="M348.25 115.781H349.094C350.312 116.531 350.875 117.891 350.781 119.859C350.5 123.516 349.141 132.234 346.703 146.016V146.156H346.844C350.312 140.719 355.047 135.516 361.047 130.547C370.234 125.016 379.328 122.484 388.328 122.953C393.016 123.609 395.359 124.266 395.359 124.922V125.766C395.266 126.047 394.891 126.375 394.234 126.75L388.328 126.469C369.766 125.438 356.594 136.406 348.812 159.375C347.312 164.625 346.094 170.578 345.156 177.234C343.844 179.109 342.203 180 340.234 179.906L339.25 179.766C337.469 179.672 336.672 178.031 336.859 174.844C336.672 172.312 336.672 168.891 336.859 164.578L337.281 155.859C339.156 132.328 341.453 119.578 344.172 117.609C345.672 116.297 347.031 115.688 348.25 115.781Z" fill="white"/>
<path d="M484.234 26.2031H484.516C487.047 26.2031 488.312 28.3125 488.312 32.5312C470.406 87 461.453 116.016 461.453 119.578C453.672 148.547 449.781 175.359 449.781 200.016V203.812C449.781 216.188 450.625 224.203 452.312 227.859C452.031 228.891 451.75 229.406 451.469 229.406H450.203C447.484 229.406 445.703 225.703 444.859 218.297C444.016 213.984 443.594 208.734 443.594 202.547V197.906C443.594 180.281 446.922 156.188 453.578 125.625C453.016 126.375 450.109 132.891 444.859 145.172C431.828 171.703 421.516 184.969 413.922 184.969C409.891 184.969 407.875 182.438 407.875 177.375V174.141C407.875 163.266 413.453 147.938 424.609 128.156C433.609 114.656 442.234 106.969 450.484 105.094C453.391 105.094 454.844 104.25 454.844 102.562C468.344 63.2812 476.875 38.8125 480.438 29.1562C481.656 27.1875 482.922 26.2031 484.234 26.2031ZM416.453 173.578C416.828 174.797 417.25 175.406 417.719 175.406C424.469 175.406 434.547 157.781 447.953 122.531C448.797 120.75 449.734 117.703 450.766 113.391C447.203 114.797 442.891 119.297 437.828 126.891C424.891 146.859 417.766 162.422 416.453 173.578ZM453.578 124.359V125.062H454V124.359H453.578Z" fill="white"/>
<path d="M634.984 0.890625H639.625C655.844 0.890625 667.844 8.57812 675.625 23.9531C677.781 29.4844 678.859 34.7344 678.859 39.7031V42.2344C678.859 66.9844 664.234 95.6719 634.984 128.297C615.953 146.766 599.359 160.547 585.203 169.641C571.609 179.391 556.891 188.531 541.047 197.062C538.609 214.781 537.391 231.562 537.391 247.406V261.047C537.391 263.016 536.547 264.562 534.859 265.688H534.156C532.75 265.688 532.047 261.516 532.047 253.172V244.172C532.047 233.578 532.516 218.953 533.453 200.297H533.031C527.594 201.703 523.75 202.406 521.5 202.406C519.625 201.938 518.688 201.469 518.688 201V200.297C518.688 199.547 523.703 197.859 533.734 195.234C539.547 135.328 544.469 97.875 548.5 82.875C551.406 74.0625 554.922 69.6562 559.047 69.6562C562.609 69.6562 564.391 71.6719 564.391 75.7031C564.391 76.5469 562.094 85.5469 557.5 102.703C551.312 132.047 546.156 161.203 542.031 190.172C542.312 190.172 542.453 190.312 542.453 190.594C554.078 185.906 576.016 170.391 608.266 144.047C620.734 132.984 631.281 122.203 639.906 111.703C660.812 84.1406 671.266 60.9844 671.266 42.2344V41.5312C671.266 27.0938 666.109 17.3906 655.797 12.4219C651.016 9.98438 645.859 8.76562 640.328 8.76562H637.094C618.531 8.76562 595.375 18.8438 567.625 39C551.219 53.3438 540.297 64.6406 534.859 72.8906C525.766 85.4531 518.828 96.8438 514.047 107.062C508.047 120.938 505.047 130.406 505.047 135.469C505.609 135.469 506.078 136.406 506.453 138.281V140.812C504.297 144.938 501.062 147 496.75 147C494.031 147 492.344 144.938 491.688 140.812V138C493.094 126.094 499.797 109.172 511.797 87.2344C517.516 77.7656 526.75 66 539.5 51.9375C553.656 38.3438 565.891 28.4062 576.203 22.125C599.359 7.96875 618.953 0.890625 634.984 0.890625Z" fill="white"/>
<path d="M670 115.781H670.844C672.062 116.531 672.625 117.891 672.531 119.859C672.25 123.516 670.891 132.234 668.453 146.016V146.156H668.594C672.062 140.719 676.797 135.516 682.797 130.547C691.984 125.016 701.078 122.484 710.078 122.953C714.766 123.609 717.109 124.266 717.109 124.922V125.766C717.016 126.047 716.641 126.375 715.984 126.75L710.078 126.469C691.516 125.438 678.344 136.406 670.562 159.375C669.062 164.625 667.844 170.578 666.906 177.234C665.594 179.109 663.953 180 661.984 179.906L661 179.766C659.219 179.672 658.422 178.031 658.609 174.844C658.422 172.312 658.422 168.891 658.609 164.578L659.031 155.859C660.906 132.328 663.203 119.578 665.922 117.609C667.422 116.297 668.781 115.688 670 115.781Z" fill="white"/>
<path d="M764.359 124.5C767.828 125.438 769.422 127.359 769.141 130.266C768.484 136.266 762.203 142.828 750.297 149.953C749.078 150.703 746.781 151.312 743.406 151.781C740.875 155.906 739.469 159.469 739.188 162.469L739.047 164.719C738.484 170.156 741.438 173.203 747.906 173.859C761.125 175.172 781.844 165.75 810.062 145.594C813.156 142.688 814.891 141.281 815.266 141.375H815.828C816.109 141.375 816.391 141.703 816.672 142.359L816.531 143.625C810.344 149.906 803.359 155.438 795.578 160.219C773.078 173.625 755.969 179.719 744.25 178.5C735.062 177.562 731.031 171.469 732.156 160.219C733.094 151.125 738.156 141.797 747.344 132.234C753.906 126.516 759.578 123.938 764.359 124.5Z" fill="white"/>
<path d="M835.656 106.922C841.281 107.391 844.094 109.312 844.094 112.688C844.094 115.781 841.703 117.75 836.922 118.594C831.391 123.094 827.5 127.5 825.25 131.812C821.031 137.625 818.922 141.891 818.922 144.609C818.922 151.453 830.031 158.531 852.25 165.844C852.25 166.031 852.438 166.125 852.812 166.125C871.656 153.188 885.719 145.031 895 141.656H895.281C895.656 141.75 895.844 141.938 895.844 142.219C895.844 143.156 891.859 145.641 883.891 149.672C873.672 155.672 864.297 161.766 855.766 167.953L854.641 168.938C855.203 171.844 855.484 174.422 855.484 176.672C855.484 188.484 850.094 200.859 839.312 213.797C825.906 228.328 815.219 235.594 807.25 235.594C803.312 235.594 801.016 232.594 800.359 226.594C800.359 215.344 815.828 196.312 846.766 169.5C830.641 163.875 820.281 159.656 815.688 156.844C811.656 153.469 809.641 149.906 809.641 146.156V145.594C809.641 134.438 816.438 122.766 830.031 110.578C833.5 108.141 835.375 106.922 835.656 106.922ZM848.875 173.297C844.75 175.641 836.359 183.234 823.703 196.078C810.953 210.516 804.578 220.688 804.578 226.594C804.578 229.594 805.891 231.094 808.516 231.094C814.234 231.094 822.906 224.016 834.531 209.859C844.469 196.453 849.438 185.109 849.438 175.828V173.719C849.438 173.438 849.25 173.297 848.875 173.297Z" fill="white"/>
<path d="M915.25 106.922C920.875 107.391 923.688 109.312 923.688 112.688C923.688 115.781 921.297 117.75 916.516 118.594C910.984 123.094 907.094 127.5 904.844 131.812C900.625 137.625 898.516 141.891 898.516 144.609C898.516 151.453 909.625 158.531 931.844 165.844C931.844 166.031 932.031 166.125 932.406 166.125C951.25 153.188 965.312 145.031 974.594 141.656H974.875C975.25 141.75 975.438 141.938 975.438 142.219C975.438 143.156 971.453 145.641 963.484 149.672C953.266 155.672 943.891 161.766 935.359 167.953L934.234 168.938C934.797 171.844 935.078 174.422 935.078 176.672C935.078 188.484 929.688 200.859 918.906 213.797C905.5 228.328 894.812 235.594 886.844 235.594C882.906 235.594 880.609 232.594 879.953 226.594C879.953 215.344 895.422 196.312 926.359 169.5C910.234 163.875 899.875 159.656 895.281 156.844C891.25 153.469 889.234 149.906 889.234 146.156V145.594C889.234 134.438 896.031 122.766 909.625 110.578C913.094 108.141 914.969 106.922 915.25 106.922ZM928.469 173.297C924.344 175.641 915.953 183.234 903.297 196.078C890.547 210.516 884.172 220.688 884.172 226.594C884.172 229.594 885.484 231.094 888.109 231.094C893.828 231.094 902.5 224.016 914.125 209.859C924.062 196.453 929.031 185.109 929.031 175.828V173.719C929.031 173.438 928.844 173.297 928.469 173.297Z" fill="white"/>
<path d="M288.488 259.816H254.6V345.064H263.048V287.272H288.488V259.816ZM297.416 259.816V287.272H322.376V331.912C322.376 337.672 319.688 338.152 309.128 335.176L307.976 338.536C321.704 347.656 330.824 345.352 330.824 333.64V259.816H297.416ZM280.424 271.144H263.048V264.136H280.424V271.144ZM322.376 271.144H305.48V264.136H322.376V271.144ZM280.424 282.952H263.048V275.464H280.424V282.952ZM322.376 282.952H305.48V275.464H322.376V282.952ZM320.072 315.976V311.656H305.864V299.272H317.096V294.952H269V299.272H279.944V311.464V311.656H266.12V315.976H279.752C278.792 328.36 273.8 334.888 266.792 340.072L268.808 342.952C278.12 338.92 286.28 330.184 287.816 315.976H297.8V340.648H305.864V315.976H320.072ZM288.104 311.656V310.696L288.008 299.272H297.8V311.656H288.104Z" fill="#F2F5F7"/>
<path d="M433.544 280.648C437.48 278.536 442.088 275.56 445.64 272.392L438.344 267.592C435.752 271.816 432.968 275.272 430.184 278.152C427.88 276.424 425.864 274.408 423.848 272.104C428.072 269.704 432.296 266.632 435.752 263.752L428.36 259.144C426.056 263.08 424.04 266.152 421.544 269.032C418.856 265.288 416.36 260.968 413.96 255.784L410.6 256.84C414.824 270.28 420.968 279.4 428.552 285.928H410.024C410.12 298.216 410.504 302.728 402.536 308.68L404.168 311.464C415.496 306.952 417.416 300.808 417.512 290.248H425.768V299.656C425.768 305.416 428.264 307.624 437.288 307.624C443.048 307.624 446.408 306.472 448.424 303.688L444.68 297.736C442.76 300.136 441.224 300.328 438.44 300.52C434.504 300.808 432.872 299.944 432.872 297.064V289.288C437.768 292.744 443.048 295.336 448.712 297.64L453.416 288.616C445.448 286.6 439.016 284.104 433.544 280.648ZM383.72 314.056C384.2 310.984 384.68 307.912 384.968 305.224H404.36V286.12H394.856C402.056 280.456 407.816 273.544 412.424 264.904L404.168 260.392L401.864 262.12L374.504 261.832V265.96L401.576 266.248C399.752 270.76 396.776 274.888 393.32 278.728C389 274.792 383.528 270.952 378.92 268.456L376.904 270.952C379.976 274.408 384.296 279.784 387.464 284.2C380.84 289.768 373.256 293.992 367.208 296.584L368.648 299.656C376.328 297.064 383.048 293.992 389 290.248H396.872V301.096H378.152C377 309.448 375.944 315.688 374.024 323.08L381.608 324.232C382.088 322.312 382.568 320.296 382.952 318.184H395.72C395.048 325.096 393.896 330.376 392.84 333.544C391.304 338.056 389.192 338.44 378.536 334.024L377 337.096C389.192 347.56 397.64 346.024 400.136 337.288C401.768 331.624 403.016 325.288 404.168 314.056H383.72ZM440.264 313.384L432.392 309.544L429.992 311.08H405.896V315.112H410.408C413 321.736 416.264 326.824 419.912 330.76C415.016 335.656 408.68 339.784 400.712 343.048L401.864 345.928C411.176 343.144 418.376 339.592 424.232 334.888C430.184 339.784 437 342.664 444.008 345.16L448.52 336.712C442.184 335.464 435.464 333.736 429.224 330.28C433.544 325.672 437 320.104 440.264 313.384ZM429.992 315.112C428.552 319.144 426.44 322.984 423.656 326.632C420.008 323.752 416.648 320.008 413.864 315.112H429.992Z" fill="#F2F5F7"/>
<path d="M508.136 309.16C513.32 309.16 517.448 305.032 517.448 299.848C517.448 294.664 513.32 290.536 508.136 290.536C502.856 290.536 498.728 294.664 498.728 299.848C498.728 305.032 502.856 309.16 508.136 309.16Z" fill="#F2F5F7"/>
<path d="M577.027 343.144H586.051V332.488H626.755V343.048H635.779V260.392H577.027V343.144ZM586.051 293.32V265.192H626.755V293.32H586.051ZM586.051 327.688V297.64H626.755V327.688H586.051Z" fill="#F2F5F7"/>
<path d="M738.499 275.944C742.819 271.912 747.331 266.536 750.115 262.6L740.899 258.376C739.267 263.656 736.003 271.432 733.315 275.944H727.651V256.072H719.011V275.944H707.779L713.635 272.584C710.659 268.072 705.571 262.408 700.003 257.896L697.219 260.008C700.387 265.48 702.979 271.048 704.899 275.944H682.627V292.936H691.075V280.264H755.107V292.936H763.555V275.944H738.499ZM727.651 304.552H745.699V286.024H699.907V304.552H719.011V311.464H692.227V339.592H700.675V315.784H719.011V345.16H727.651V315.784H746.947V327.784C746.947 332.104 745.603 332.776 735.235 330.088L734.179 333.448C748.099 343.144 755.395 339.112 755.395 331.048V311.464H727.651V304.552ZM708.163 290.344H737.443V300.232H708.163V290.344Z" fill="#F2F5F7"/>
</g>
<defs>
<filter id="filter0_d" x="0.140625" y="0.890625" width="979.297" height="353.037" filterUnits="userSpaceOnUse" color-interpolation-filters="sRGB">
<feFlood flood-opacity="0" result="BackgroundImageFix"/>
<feColorMatrix in="SourceAlpha" type="matrix" values="0 0 0 0 0 0 0 0 0 0 0 0 0 0 0 0 0 0 127 0"/>
<feOffset dy="4"/>
<feGaussianBlur stdDeviation="2"/>
<feColorMatrix type="matrix" values="0 0 0 0 0 0 0 0 0 0 0 0 0 0 0 0 0 0 0.25 0"/>
<feBlend mode="normal" in2="BackgroundImageFix" result="effect1_dropShadow"/>
<feBlend mode="normal" in="SourceGraphic" in2="effect1_dropShadow" result="shape"/>
</filter>
</defs>
</svg>
